<svg width="1.5rem" height="1.5rem" fill="none" xmlns="http://www.w3.org/2000/svg" viewBox="0 0 24 24"
    aria-hidden="true">
    <path fill-rule="evenodd" clip-rule="evenodd"
        d="M12 4.25C5.602 4.25.75 7.714.75 12c0 4.286 4.853 7.75 11.25 7.75S23.25 16.286 23.25 12c0-4.286-4.853-7.75-11.25-7.75ZM2.25 12c0-3.397 4.33-6.25 9.75-6.25s9.75 2.853 9.75 6.25-4.33 6.25-9.75 6.25S2.25 15.397 2.25 12Zm4.5 0a5.25 5.25 0 1 1 10.5 0 5.25 5.25 0 0 1-10.5 0ZM12 8.25a3.75 3.75 0 1 0 0 7.5 3.75 3.75 0 0 0 0-7.5Z"
        fill="currentColor" />
</svg>