<svg fill="none" xmlns="http://www.w3.org/2000/svg" viewBox="0 0 24 24" aria-hidden="true">
    <path fill-rule="evenodd" clip-rule="evenodd"
        d="M7.024 3.75c0-.966.784-1.75 1.75-1.75h11.498c.966 0 1.75.784 1.75 1.75v11.498a1.75 1.75 0 0 1-1.75 1.75H8.774a1.75 1.75 0 0 1-1.75-1.75V3.75ZM8.774 4a.25.25 0 0 0-.25.25v11.498c0 .138.112.25.25.25h11.498a.25.25 0 0 0 .25-.25V4a.25.25 0 0 0-.25-.25H8.774ZM3.75 8.774c0-.966.784-1.75 1.75-1.75h.024a.75.75 0 0 1 0 1.5H5.5a.25.25 0 0 0-.25.25v11.498c0 .138.112.25.25.25h11.498a.25.25 0 0 0 .25-.25v-.024a.75.75 0 0 1 1.5 0v.024a1.75 1.75 0 0 1-1.75 1.75H5.5a1.75 1.75 0 0 1-1.75-1.75V8.774Z"
        fill="currentColor" />
</svg>