<svg width="1.5rem" height="1.5rem" fill="none" xmlns="http://www.w3.org/2000/svg" viewBox="0 0 24 24"
    aria-hidden="true">
    <path fill-rule="evenodd" clip-rule="evenodd"
        d="M5.75 2h12.5c.966 0 1.75.784 1.75 1.75v16.5A1.75 1.75 0 0 1 18.25 22H5.75A1.75 1.75 0 0 1 4 20.25V3.75C4 2.784 4.784 2 5.75 2Zm0 1.5a.25.25 0 0 0-.25.25v16.5c0 .138.112.25.25.25h12.5a.25.25 0 0 0 .25-.25V3.75a.25.25 0 0 0-.25-.25H5.75ZM8 6.75A.75.75 0 0 1 8.75 6h6.5a.75.75 0 0 1 0 1.5h-6.5A.75.75 0 0 1 8 6.75Zm0 4A.75.75 0 0 1 8.75 10h6.5a.75.75 0 0 1 0 1.5h-6.5a.75.75 0 0 1-.75-.75Zm0 4a.75.75 0 0 1 .75-.75h6.5a.75.75 0 0 1 0 1.5h-6.5a.75.75 0 0 1-.75-.75Z"
        fill="currentColor" />
</svg>