<svg width="1.5rem" height="1.5rem" fill="none" xmlns="http://www.w3.org/2000/svg" viewBox="0 0 24 24"
    aria-hidden="true">
    <path fill-rule="evenodd" clip-rule="evenodd"
        d="M3.28 2.22a.75.75 0 0 0-1.06 1.06l2.275 2.275C2.163 7.042.75 9.446.75 12c0 4.286 4.853 7.75 11.25 7.75 2.292 0 4.428-.517 6.197-1.407l2.523 2.523a.75.75 0 1 0 1.06-1.06L3.28 2.22Zm4.843 4.843 1.157 1.157a3.751 3.751 0 0 0 4.5 4.5l1.157 1.157A5.25 5.25 0 0 1 8.123 7.063ZM12 18.25c-5.42 0-9.75-2.853-9.75-6.25 0-1.97 1.184-3.783 3.153-4.96l2.076 2.076a5.25 5.25 0 0 0 6.405 6.405l2.076 2.076c-1.23.425-2.558.653-3.96.653Zm5.943-2.56-1.125-1.125a3.751 3.751 0 0 0-4.133-4.133L11.56 9.307c.14-.02.291-.057.44-.057a3.75 3.75 0 0 1 3.75 3.75c0 .149-.037.3-.057.44l2.25 2.25ZM23.25 12c0-1.264-.486-2.437-1.327-3.47a.75.75 0 1 0-1.138.977c.65.795 1.026 1.68 1.027 2.493 0 2.048-1.95 3.954-5.002 4.97a.75.75 0 0 0 .38 1.45c3.565-1.173 6.06-3.432 6.06-6.42Z"
        fill="currentColor" />
</svg>